<svg width="40" height="40" viewBox="0 0 40 40" fill="none" xmlns="http://www.w3.org/2000/svg">
<g clip-path="url(#clip0_0_387)">
<path d="M0.453369 37.3419L0.971888 38.509L19.5784 30.7939L22.8199 31.183L23.9868 34.7487L22.4309 36.24C21.8475 36.7585 21.6531 37.6011 21.9773 38.3792L22.6256 40L33.3872 35.786L32.8038 34.2301C32.5445 33.452 31.8313 32.9984 30.9887 32.9984H28.8491L27.6822 30.2105L30.5347 28.7844C31.4423 28.3305 31.8313 27.2931 31.5072 26.3856L27.812 16.4666C27.423 15.4293 26.3207 14.9753 25.2834 15.2995C25.2834 15.2995 25.2188 15.2995 25.2188 15.3644L22.4958 16.5312L22.1067 15.5587L23.598 13.8085C24.6351 12.6413 25.2834 11.2153 25.4781 9.65939L27.3581 7.39032C28.5898 5.96392 28.3306 3.82463 26.9042 2.5926C26.6449 2.39823 26.3856 2.20387 26.1264 2.07408C25.4132 1.74993 24.7 1.68503 23.9222 1.87972L23.7275 1.29599C23.4034 0.258949 22.2365 -0.259886 21.2641 0.129161L7.58474 5.05635C6.54739 5.4454 6.02887 6.54733 6.41792 7.51979V7.58469L6.74207 8.42736C5.05641 9.20545 4.27831 11.1504 4.86173 12.836C5.31567 14.1326 6.48249 15.0402 7.844 15.2346L10.8912 15.5587C12.1229 16.4666 13.6139 17.05 15.1052 17.1795L17.2444 17.3742L17.6335 18.3466C17.1796 18.6059 16.8554 19.0598 16.7259 19.6432L16.272 21.8474L0.453369 28.2656L0.90731 29.4973L9.9836 25.8671L12.1878 32.4796L0.453369 37.3419ZM31.5072 34.6192L31.637 35.0079L23.3385 38.3144L23.1441 37.9253C23.0792 37.666 23.1441 37.4068 23.2739 37.2124L25.4781 35.1377L28.2657 34.2301H30.8589C31.183 34.2301 31.3777 34.3596 31.5072 34.6192ZM27.423 33.063L25.089 33.8411L24.2463 31.3777C24.6351 31.4422 24.9592 31.3777 25.2834 31.183L26.3856 30.6645L27.423 33.063ZM25.6724 16.3368C25.9966 16.207 26.3856 16.3368 26.5154 16.661L27.0339 18.0225L23.8573 19.0598L24.2463 20.2916L27.423 19.2542L28.2008 21.3289L25.1539 22.3659L25.543 23.598L28.6547 22.5606L29.4328 24.635L26.4505 25.6075L26.8396 26.8395L29.8864 25.8022L30.2106 26.6448C30.3404 26.969 30.2106 27.2931 29.8864 27.4229L24.7649 29.9513C24.6351 30.0162 24.5056 30.0162 24.3758 30.0162L19.9675 29.4973L17.5686 22.3014L18.0225 19.9025C18.0874 19.7081 18.2169 19.5135 18.4116 19.4486L25.6724 16.3368ZM25.6075 3.24091C26.6449 3.69485 27.1637 4.92657 26.7098 6.02881C26.6449 6.22318 26.5154 6.35297 26.3856 6.54733L25.6075 7.51979C25.543 6.87149 25.4132 6.28807 25.2188 5.63977L24.3758 3.11143C24.8298 3.04654 25.2188 3.11143 25.6075 3.24091ZM6.15834 12.5119C5.76961 11.4096 6.22323 10.2428 7.26059 9.72397L8.16815 11.9285C8.49231 12.7062 8.94625 13.4843 9.46477 14.1326L8.10326 14.0029C7.19569 13.938 6.41792 13.3546 6.15834 12.5119ZM15.3644 15.9478C12.7063 15.6885 10.3723 14.0029 9.39987 11.4745L7.71453 7.19564C7.58474 6.87149 7.71453 6.48244 8.03868 6.35297L21.7177 1.42577C21.9124 1.36088 22.0419 1.36088 22.2365 1.42577C22.366 1.49067 22.4958 1.62014 22.5607 1.81482L23.9868 6.09371C24.7649 8.49225 24.2463 11.0855 22.6256 12.9655L20.6158 15.2995L21.1992 16.8553L18.8652 17.8278L18.2169 16.207L15.3644 15.9478ZM11.2153 25.3482L12.7063 24.7648L14.3271 29.692L15.5588 29.303L13.8734 24.2463L16.4667 23.2089L18.6708 29.7569L13.4195 31.9611L11.2153 25.3482Z" fill="black"/>
<path d="M32.4798 11.344V11.9923H33.7764V11.344C33.7764 9.52887 35.2028 8.10247 37.018 8.10247V6.80585C35.2028 6.80585 33.7764 5.37977 33.7764 3.56432V2.91602H32.4798V3.56432C32.4798 5.37977 31.0537 6.80585 29.2383 6.80585V8.10247C31.0537 8.10247 32.4798 9.52887 32.4798 11.344ZM33.1281 5.89829C33.5172 6.5466 34.0357 7.06543 34.684 7.45416C34.0357 7.84321 33.5172 8.36204 33.1281 9.01035C32.7391 8.36204 32.2206 7.84321 31.5722 7.45416C32.2206 7.06543 32.7391 6.5466 33.1281 5.89829Z" fill="black"/>
<path d="M3.95442 24.3108V24.9591H5.25104V24.3108C5.25104 22.4957 6.67744 21.0693 8.49257 21.0693V19.7727C6.67744 19.7727 5.25104 18.3466 5.25104 16.5311V15.8828H3.95442V16.5311C3.95442 18.3466 2.52834 19.7727 0.712891 19.7727V21.0693C2.52834 21.0693 3.95442 22.4957 3.95442 24.3108ZM4.60273 18.8651C4.99178 19.5134 5.5103 20.0322 6.1586 20.421C5.5103 20.81 4.99178 21.3288 4.60273 21.9771C4.21368 21.3288 3.69516 20.81 3.04686 20.421C3.69516 20.0322 4.21368 19.5134 4.60273 18.8651Z" fill="black"/>
<path d="M36.3694 16.5311V15.8828H35.0728V16.5311C35.0728 18.3466 33.6467 19.7727 31.8313 19.7727V21.0693C33.6467 21.0693 35.0728 22.4957 35.0728 24.3108V24.9591H36.3694V24.3108C36.3694 22.4957 37.7958 21.0693 39.611 21.0693V19.7727C37.7958 19.7727 36.3694 18.3466 36.3694 16.5311ZM35.7211 21.9771C35.3321 21.3288 34.8136 20.81 34.1653 20.421C34.8136 20.0322 35.3321 19.5134 35.7211 18.8651C36.1102 19.5134 36.6287 20.0322 37.277 20.421C36.6287 20.81 36.1102 21.3288 35.7211 21.9771Z" fill="black"/>
<path d="M19.7079 11.5387L20.6155 12.4463C24.1812 8.88063 20.8747 3.43492 20.6804 3.24023L19.5781 3.95343C19.643 3.95343 22.5604 8.68626 19.7079 11.5387Z" fill="black"/>
</g>
<defs>
<clipPath id="clip0_0_387">
<rect width="40" height="40" fill="white"/>
</clipPath>
</defs>
</svg>
